<?xml version="1.0" standalone="no"?>
<!DOCTYPE svg PUBLIC "-//W3C//DTD SVG 1.1//EN" "http://www.w3.org/Graphics/SVG/1.1/DTD/svg11.dtd" >
<svg xmlns="http://www.w3.org/2000/svg">
<metadata></metadata>
<defs>
<font id="big_surpriseregular" horiz-adv-x="508" >
<font-face units-per-em="2048" ascent="1638" descent="-410" />
<missing-glyph horiz-adv-x="500" />
<glyph horiz-adv-x="2048" />
<glyph horiz-adv-x="2048" />
<glyph unicode="&#xd;" />
<glyph unicode=" " />
<glyph unicode="A" horiz-adv-x="1608" d="M44 88q-11 44 -11 87q0 137 111 253q194 188 464 252q46 65 104 176q56 100 136 208q111 129 196 192q66 42 116 80q-55 52 -182 52h-14q-177 -24 -228 -52q-181 -59 -332 -204h-8v12q205 224 396 300q126 61 304 61q27 0 56 -1q119 -24 176 -60q24 -16 36 -16 q128 40 192 40q11 0 20 -20q-15 -68 -28 -68q-111 -10 -120 -24q80 -91 112 -252q16 -126 16 -236q0 -185 -44 -328q-100 -308 -148 -396q-56 -106 -68 -108h-4q-36 30 -52 84v12q72 157 108 320q12 39 20 296q0 4 -4 4q0 281 -136 524h-8q-169 -94 -356 -368 q-57 -108 -120 -212q49 3 97 3q179 0 331 -47q152 -50 152 -84q-41 -142 -68 -164q-184 80 -360 120q-115 16 -220 16q-22 -31 -104 -208q-58 -104 -104 -168q-86 -112 -149 -137q-39 -24 -119 -27q-114 0 -156 88zM160 236q6 -69 80 -72q111 0 192 132q40 67 111 231 q-84 -3 -171 -35q-74 -30 -156 -112q-56 -70 -56 -137v-7z" />
<glyph unicode="B" horiz-adv-x="1655" d="M47 176q0 12 126 129l10 -1v-56q0 -70 80 -128q32 -16 68 -16h8q98 4 244 376q176 548 212 640q61 140 132 140q22 4 112 4q12 0 12 -16q0 -89 -100 -340q-151 -373 -320 -668q-78 -118 -134 -162q-91 -78 -205 -78h-9q-73 3 -140 52q-89 75 -96 124zM67 860 q-15 37 -15 75q0 103 111 209q173 163 396 236q264 84 516 84h28q269 0 424 -128q80 -76 80 -160q1 -8 1 -16q0 -82 -57 -148q-221 -224 -336 -300q-129 -99 -132 -120q-9 -31 28 -32q55 5 101 5q107 0 167 -29q121 -71 121 -165q0 -7 -1 -15q-4 -67 -72 -168 q-106 -134 -280 -176q-36 -8 -88 -8q-92 1 -140 60q-28 36 -28 90q0 10 1 21q17 86 131 141q51 22 99 22q8 0 15 -1q49 -6 50 -25q-14 -72 -32 -72q-18 12 -60 8q-92 -23 -92 -88v-8q10 -45 86 -45q147 5 198 177q1 10 1 19q0 72 -56 119q-57 42 -169 42q-116 17 -116 110 q0 44 104 126q288 241 288 304q24 38 24 116v4q0 138 -169 208q-92 33 -239 36q-312 -12 -500 -120q-216 -122 -216 -244q0 -53 84 -84q70 0 97 1q19 -51 19 -100v-9q4 -29 -122 -48q-28 -4 -57 -4q-40 0 -81 8q-94 39 -112 92z" />
<glyph unicode="C" horiz-adv-x="1299" d="M36 548q12 314 268 640q248 276 576 292q19 2 38 2q130 0 238 -78q96 -74 96 -180v-8q0 -227 -296 -388q-139 -60 -208 -60q-24 39 -24 119v13q61 14 108 28q284 120 284 303v5q-24 128 -197 128h-3q-100 -12 -204 -88q-431 -336 -460 -776q-1 -18 -1 -34q0 -160 85 -274 q78 -96 196 -96q57 0 140 60q26 19 112 112q10 0 68 -56v-12q-186 -200 -412 -200q-15 -2 -30 -2q-86 0 -174 78q-200 203 -200 457v15z" />
<glyph unicode="D" horiz-adv-x="1167" d="M48 87q-5 11 -5 29q0 53 43 164q72 157 168 400q198 479 216 528q5 16 16 20h180q19 -1 16 -20l-180 -444q-64 -148 -264 -656q4 -8 4 -12q13 -4 33 -3q47 0 135 19q196 58 344 252q84 119 136 348q4 42 4 84q0 241 -124 448q-99 133 -284 176q-11 1 -21 1 q-116 0 -215 -81q-21 -29 -44 -56q-57 45 -88 128v8q33 47 189 90q73 16 145 16q111 0 218 -38q140 -45 312 -240q112 -192 126 -282q10 -67 11 -131q0 -180 -81 -343q-108 -229 -404 -396q-103 -60 -336 -92q-47 -5 -85 -5q-156 0 -165 88z" />
<glyph unicode="E" horiz-adv-x="1210" d="M43 412q3 180 180 348q81 82 168 128q-161 110 -161 258q0 13 1 26q11 91 92 184q132 132 362 132h10q19 1 38 1q200 0 362 -97q80 -47 84 -69q-37 -89 -84 -119h-4q-109 143 -188 172q-52 21 -104 21q-10 0 -20 -1q-94 0 -184 -52q-86 -45 -136 -176q-16 -56 -15 -104 q0 -23 3 -44q26 -80 60 -80q115 48 238 48h10q204 -20 204 -108q-7 -45 -92 -80q-78 -24 -132 -24h-13q-95 0 -199 27q-210 -173 -240 -331q-2 -28 -2 -55q0 -131 58 -205q95 -117 240 -120q99 11 180 84l68 88h4q33 -35 68 -60q4 -7 4 -16q-65 -95 -148 -128 q-52 -37 -212 -60h-17q-159 0 -291 88q-192 144 -192 324zM651 872q0 -13 48 -16q113 16 124 32l-37 7z" />
<glyph unicode="F" horiz-adv-x="1718" d="M43 283q18 127 72 228q128 197 348 272q137 56 396 84q158 360 404 360q52 -3 52 -12q0 -5 -76 -40q-86 -85 -120 -192q-44 -118 -44 -124q195 -27 288 -64q134 -51 144 -68v-4q-65 -147 -80 -156h-12q-178 149 -292 176l-76 20q-6 -1 -36 -96q-85 -301 -280 -516 q-174 -152 -380 -176q-24 -3 -46 -3q-85 0 -154 47q-108 79 -108 244v20zM225 345q-21 -91 -21 -152q0 -79 35 -110q36 -24 64 -24q202 0 344 264q45 113 88 248q24 81 76 200v8q-252 -36 -400 -160q-161 -172 -186 -274zM395 1267q6 101 100 164q109 76 260 80q32 2 63 2 q156 0 297 -50q88 -40 248 -76h72q117 0 224 100q6 0 12 -12q0 -117 -236 -208q-86 -24 -172 -24q-128 0 -428 104q-56 20 -140 32q-21 2 -41 2q-84 0 -132 -45q-40 -42 -39 -97q0 -87 100 -120q60 0 60 -12v-4l-84 -80h-4q-161 65 -161 216q0 14 1 28z" />
<glyph unicode="G" horiz-adv-x="1246" d="M47 448q0 188 56 352q68 164 144 260q121 177 332 324q171 102 308 116q16 1 32 1q130 0 216 -73q44 -56 44 -124q-1 -106 -136 -236q-75 -82 -264 -172q-6 0 -76 76l-44 44v4q228 105 328 280q5 20 5 37q0 76 -105 83q-143 0 -320 -152q-314 -382 -314 -671q0 -23 2 -45 q0 -271 148 -344q7 -1 14 -1q109 0 306 281q151 203 312 440l12 12h8q13 0 136 -84q0 -21 -112 -368q-138 -502 -136 -528q1 -89 32 -108q20 -15 20 -32q-15 -7 -40 -12q-19 -1 -36 -1q-107 0 -124 33q-32 45 -32 113v15q0 123 164 580l48 156h-4q-52 -68 -260 -376 q-108 -155 -196 -244q-50 -47 -164 -56q-270 6 -304 420z" />
<glyph unicode="H" horiz-adv-x="1708" d="M29 840q0 133 116 180q56 24 116 24h20q205 -12 388 -112q64 150 144 496q9 84 20 84h4l152 -104v-12q-40 -197 -148 -532q-4 0 -8 -20q0 -15 48 -40l116 -88q136 7 136 20q108 277 212 484q77 181 152 292h8l144 -108q4 -8 4 -12q-79 -109 -180 -336q-44 -80 -144 -316 q27 2 62 2t78 -2q24 0 26 -120q0 -36 -6 -48q-68 8 -137 8q-37 0 -74 -2q-99 -179 -185 -582q-156 144 -156 148q65 240 128 416l-8 4q-199 -8 -340 -8q-120 -248 -256 -424q-132 -127 -216 -160h-8q-37 39 -84 116q-5 0 -20 24v16q17 14 88 40q130 90 200 208 q30 36 100 164v20h-80q-63 0 -264 80q-109 70 -140 172q-4 28 -8 28zM197 868q0 -79 196 -144q66 -12 164 -20h16q32 0 48 80q20 35 20 68q-160 92 -324 92q-120 -11 -120 -76zM785 720q4 -8 4 -12q47 4 68 4h4v8q0 6 -52 40h-4q-10 0 -20 -40z" />
<glyph unicode="I" horiz-adv-x="836" d="M57 92q0 10 40 108l248 636l244 632l12 8h12q27 -20 164 -64v-16l-272 -676q-128 -304 -284 -720l-8 -4h-8q-75 55 -140 80q-8 10 -8 16z" />
<glyph unicode="J" horiz-adv-x="1156" d="M45 50l56 62q63 -87 136 -92h12q124 0 308 216v4q-97 128 -120 212q-28 35 -60 212q-7 42 -12 120l4 8q0 4 -4 4l4 20v28q24 149 52 232q0 41 120 236q131 161 248 188q52 16 80 16h20q160 0 208 -240q8 -95 8 -132q0 -206 -92 -456q-61 -169 -216 -408q-66 -66 -84 -104 q10 0 56 -52q-12 -28 -36 -40h-8q-53 40 -64 40q-202 -216 -372 -220h-5q-134 0 -239 146zM517 664q0 -136 52 -280q32 -67 44 -72h4q144 235 268 580q84 267 84 420v40q-8 60 -40 60q-81 0 -204 -136q-115 -164 -140 -268q-60 -170 -60 -296q-4 0 -8 -48z" />
<glyph unicode="K" horiz-adv-x="1391" d="M50 278q0 20 192 68q88 210 220 568q32 65 208 536q19 28 24 28q156 -101 156 -108v-16q-100 -224 -268 -664q-56 -126 -92 -224q8 -4 12 -4q191 97 328 240q116 98 176 184q164 196 164 403v17q-26 152 -48 152v4q11 15 148 100h8q23 0 60 -156l8 -80q0 -271 -188 -500 q-85 -116 -228 -216q-267 -160 -296 -160q-79 -39 -172 -72q-16 -18 -16 -36q189 -30 312 -104q68 -24 184 -160l4 -20q-9 -14 -152 -112h-12q-31 57 -100 120q-159 133 -284 164q-85 -225 -96 -236h-4q-135 106 -140 116v16q11 20 52 132l-8 4q-91 0 -144 -8q-8 13 -8 24z " />
<glyph unicode="L" horiz-adv-x="1516" d="M71 135v8q118 60 228 296q68 206 108 388q145 446 480 616q115 48 227 48h17q246 0 332 -192v-4q-128 -122 -156 -144h-8q-9 53 -28 104q-101 152 -228 152q-85 0 -192 -100q-133 -167 -200 -448q-41 -179 -140 -376q-44 -104 -224 -296h4q115 43 260 52q332 -1 456 -196 q-139 -100 -168 -100q-84 132 -260 188q-49 12 -121 12h-11q-175 -24 -208 -52q-75 -51 -100 -60q-28 23 -68 104z" />
<glyph unicode="M" horiz-adv-x="1537" d="M57 97v12q52 80 176 364q100 214 232 552l52 160q7 38 7 69q0 121 -107 143q-32 0 -76 -36h-8v16q78 104 188 104q63 0 112 -48q84 -81 84 -188q0 -106 -112 -384q-45 -129 -188 -406q69 105 168 258q156 251 224 360q115 196 188 196h12q70 0 115 -54q12 -15 12 -48 q0 -17 -3 -38q0 -55 -96 -284q-41 -98 -226 -508q114 174 234 356q143 214 208 276q26 32 76 44q152 0 152 -140q0 -89 -265 -616q-35 -70 -51 -112l12 -8q46 0 104 48h4q28 -39 28 -56q-99 -98 -220 -124q-24 -4 -45 -4q-91 0 -117 71q-1 8 -1 17q0 40 28 101 q23 51 103 199q68 156 184 392l12 40v4q-23 -14 -120 -144q-214 -322 -412 -608q-43 -84 -60 -84h-12q-111 57 -160 96v8q141 303 344 784q67 146 67 171q0 5 -3 5q-196 -296 -400 -640q-81 -133 -232 -400q-21 -28 -40 -28q-115 53 -172 112z" />
<glyph unicode="N" horiz-adv-x="1192" d="M49 108q54 139 368 820q62 134 80 228q3 26 3 50q0 88 -47 140q-32 34 -86 34h-6q-42 -10 -76 -32q-8 0 -8 8q71 100 188 100q227 -27 236 -256q0 -115 -132 -396q-12 -36 -100 -220q-58 -139 -124 -264q-44 -91 -63 -144l3 -4q63 54 248 356q162 234 252 380 q116 168 212 168h4q81 0 120 -100q2 -11 2 -24q0 -135 -178 -496q-153 -306 -148 -320q4 -8 16 -8q33 0 128 68h12q11 -5 28 -36v-8q-50 -56 -121 -101q-76 -53 -159 -54q-105 13 -105 117q0 12 1 26q4 63 132 316q188 397 188 432v20q0 8 -8 8h-4q-32 -22 -116 -148 q-404 -646 -532 -772h-12q-70 23 -196 112z" />
<glyph unicode="O" horiz-adv-x="1434" d="M50 403q-6 48 -6 97q0 84 18 171q20 86 76 200q46 97 216 260q189 152 332 152q6 -3 6 -8q0 -14 -58 -40q-145 -101 -240 -264q-134 -276 -132 -444q3 -158 104 -320q101 -119 244 -132h10q153 0 338 176q121 133 196 352q41 133 41 235q0 19 -1 37q0 206 -120 368 q-116 115 -266 115q-23 0 -46 -3q-51 -9 -136 -48q-16 0 -16 12q0 71 168 136q84 21 161 21q84 0 159 -25q122 -48 204 -184q85 -187 84 -358v-30q-9 -166 -88 -340q-157 -312 -384 -450q-161 -106 -336 -114q-296 11 -464 244q-56 100 -64 184z" />
<glyph unicode="P" horiz-adv-x="1703" d="M42 455q0 340 280 648q246 222 392 260q95 47 192 68q12 0 20 48q11 8 188 20h16q8 -1 8 -8v-4l-4 -20l8 -4h4q305 0 416 -116q88 -68 88 -188v-8q-10 -87 -92 -176q-122 -112 -257 -127q-19 -2 -39 -2q-98 0 -208 45l-8 12v4l60 156h12q51 -40 124 -40q65 0 152 48 q48 50 52 124q-20 83 -64 112q-59 30 -96 36q-34 15 -112 28h-52q-4 0 -4 4q-18 0 -40 -96l-112 -336q-68 -177 -168 -464q-155 -403 -252 -466q-53 -38 -114 -38h-6q-275 0 -372 352q-11 46 -12 128zM254 475q0 -337 112 -392q6 -4 13 -4q35 0 95 84q56 94 164 396 q0 7 140 412q92 287 112 368v4h-4q-276 -74 -396 -220q-96 -113 -124 -200q-97 -235 -112 -448z" />
<glyph unicode="Q" horiz-adv-x="1370" d="M53 44q0 55 116 132q51 37 220 72q82 0 308 100q124 56 240 184q89 95 136 280q24 122 24 220q-28 153 -60 196q-62 117 -192 160q-65 24 -146 24h-6q-115 -10 -204 -72q-101 -58 -160 -220q-28 -89 -28 -172q0 -68 48 -180v-16q-16 -22 -172 -96q-30 0 -40 156v68 q14 125 64 236q53 105 116 172q195 220 488 220h16q165 -15 220 -48q268 -148 268 -460q0 -248 -176 -460q-88 -92 -176 -136q-58 -52 -364 -164q0 -4 -16 -4v-8q32 0 252 -72q7 -4 20 -4h80q94 0 196 76q16 -6 16 -12v-20q0 -82 -96 -168q-33 -34 -136 -56q-31 0 -56 -4 q-115 0 -180 40l-192 92q-53 16 -92 16q-44 0 -120 -52q-111 -64 -160 -64h-8q-27 0 -48 44z" />
<glyph unicode="R" horiz-adv-x="1704" d="M49 553q19 234 188 460q41 75 248 260q175 129 284 168q153 56 308 56q247 -28 352 -96q86 -48 144 -116q88 -115 88 -236q0 -88 -56 -168q-49 -78 -164 -120q-74 -36 -324 -80q-16 -12 -16 -16q119 -155 312 -372q133 -153 140 -156v-12q-56 -44 -176 -108h-4 q-169 197 -260 328q-188 242 -188 288v28q23 63 120 100l200 36q114 32 144 84q44 72 48 132q0 194 -184 312q-125 76 -244 76q-235 0 -472 -220q-46 -42 -108 -136q-67 -107 -116 -248q-39 -136 -39 -314q0 -47 3 -98q12 -121 36 -168q38 -128 100 -128q98 2 168 228 q64 196 132 456q44 119 137 482q-1 17 24 26q58 19 223 72h8q8 -1 8 -8v-8q-20 -39 -68 -188q-16 -31 -60 -152q-224 -579 -324 -784q-67 -145 -136 -192q-78 -41 -148 -41q-120 0 -216 121q-88 122 -104 276q-9 43 -9 120q0 26 1 56z" />
<glyph unicode="S" horiz-adv-x="1322" d="M43 -77q0 72 60 148q110 123 228 172q133 72 352 112q95 20 156 28v12q-75 112 -104 176q-196 323 -196 464v24q0 108 84 244q62 77 158 133q83 49 198 63h4q195 0 254 -89q26 -50 26 -83q0 -145 -168 -408l-16 -12h-4q-11 8 -128 64q-16 12 -16 16v8q87 121 132 300v10 q0 100 -112 114q-82 0 -164 -88q-60 -91 -60 -176v-4q20 -147 68 -224q55 -112 104 -192q130 -210 176 -328q52 4 87 4q20 0 35 -1q14 -4 14 -11v-8q0 -38 -16 -56l-20 4h-88v-64q0 -65 -56 -172q-86 -127 -248 -236q-88 -52 -148 -72q-152 -44 -268 -44h-64 q-187 0 -244 108q-16 32 -16 58v6zM243 -29v-4q0 -106 140 -132q253 0 392 124q124 105 128 232q-13 120 -28 120q-224 -35 -440 -124q-80 -40 -124 -76q-68 -57 -68 -140z" />
<glyph unicode="T" horiz-adv-x="1274" d="M46 1351q0 90 140 160q46 21 116 24q91 0 428 -120q68 -16 108 -16q151 74 268 74q20 0 40 -2q60 -7 60 -48q0 -64 -152 -136q-114 -36 -239 -36q-40 0 -81 4q-104 -66 -176 -132q-228 -267 -232 -432q-4 -49 -4 -94q0 -257 140 -387q147 -112 266 -112h10q132 8 256 105 h20q20 -10 20 -32q-30 -59 -132 -112q-53 -45 -200 -72h-21q-255 0 -410 144q-165 160 -173 416q0 188 132 388q84 107 128 144q205 173 244 192v4q-47 7 -116 36q-175 76 -310 76h-10q-63 0 -108 -76h-8z" />
<glyph unicode="U" horiz-adv-x="1345" d="M50 1156q12 241 308 300q26 2 50 2q187 0 218 -126q7 -40 7 -77q0 -74 -29 -136q-73 -172 -190 -439q-78 -215 -104 -332q-9 -46 -9 -82q0 -10 1 -18q0 -93 72 -124q16 -3 32 -3q73 0 148 63q94 106 126 174q119 191 282 526q86 220 192 220h8q134 -3 132 -144 q0 -71 -92 -312q-64 -187 -168 -468q-14 -39 -14 -60t14 -24q54 2 116 60h4q5 0 20 -28v-8q0 -26 -72 -80q-60 -40 -148 -40h-9q-114 0 -119 124q0 58 68 236q184 463 196 552q2 17 -8 12q-138 -277 -184 -368q-145 -265 -260 -412q-85 -101 -156 -127q-42 -16 -103 -16 q-27 0 -57 3q-207 43 -224 240q-1 14 -1 29q0 215 225 691q132 244 132 340q-8 68 -87 68h-5q-132 -34 -132 -128q0 -51 40 -84q0 -55 -132 -136h-24q-64 52 -64 132z" />
<glyph unicode="V" horiz-adv-x="1626" d="M43 1272q11 66 68 124q83 55 148 56q22 2 39.5 2t28.5 -2q78 -16 192 -64q86 -32 180 -32q74 0 140 36q24 0 28 -80l4 -8q0 -9 -92 -72q-183 -179 -216 -276q-128 -231 -136 -472q0 -106 60 -216q111 -140 248 -140q167 0 316 172q104 123 162 411q4 24 4 53q0 21 -2 44 q-12 135 -40 212q-20 27 -20 44q58 50 168 120h4q4 0 48 -100q81 -129 204 -172q24 0 24 -16q-41 -53 -112 -164h-24q-5 0 -68 56q-9 -12 -36 -124q-33 -147 -132 -296q-175 -231 -336 -296q-132 -72 -300 -72q-53 0 -144 40q-131 75 -168 184q-28 43 -44 184q0 279 216 612 q0 14 140 172l-4 8l-28 -4q-121 11 -176 52q-117 56 -144 64q-21 6 -52 4q-64 0 -144 -48q0 4 -4 4z" />
<glyph unicode="W" horiz-adv-x="2170" d="M28 1340q95 132 212 132h9q121 0 295 -80q95 -37 192 -44q50 0 128 28q14 0 40 -76v-8q-115 -90 -200 -208q-163 -239 -192 -600q0 -173 120 -252q72 -37 131 -37q11 0 21 1q140 34 140 64q-35 103 -36 240q0 148 96 332q106 167 236 168q112 -18 112 -136 q-7 -252 -108 -412q-8 -31 -96 -152q25 -64 108 -116q59 -28 117 -28q90 0 179 68q67 67 116 184q67 159 84 396q1 14 1 28q0 130 -57 292q0 24 192 136h8q141 -148 260 -208q8 -10 8 -16q-85 -159 -104 -172q-45 32 -112 96l-8 -4l2 -46q0 -240 -150 -554 q-165 -245 -316 -300q-126 -56 -224 -56q-128 0 -268 156q-102 -70 -184 -100q-78 -36 -188 -36q-77 0 -172 62q-126 101 -126 304q0 24 2 50q31 358 264 648q47 63 100 108q4 8 4 12h-4q-32 -8 -84 -8q-64 0 -216 76q-101 52 -156 68q0 9 -68 12q-22 0 -100 -20q-8 0 -8 8z M1056 524q0 -93 20 -100q56 104 56 272q-4 68 -20 84q-36 -3 -56 -180v-76z" />
<glyph unicode="X" horiz-adv-x="1302" d="M43 172q16 116 64 176q86 119 228 220q132 96 277 169l-153 475q-61 132 -152 132q-72 -16 -132 -84q-6 0 -48 40v4q21 61 92 104q73 47 172 52q187 0 260 -180q44 -93 112 -336l32 -88h12q221 161 228 308q-7 100 -44 100h-8q-3 0 -32 -4q-16 16 -16 24q64 164 168 164 h20q99 0 132 -104q2 -20 2 -41q0 -260 -382 -491l-56 -40l176 -564q22 -53 68 -76q6 0 12 -16q-14 -109 -135 -109q-8 0 -17 1q-61 21 -88 72q-52 111 -132 400q-57 159 -72 188q-171 -97 -300 -212q-73 -70 -72 -160q24 -112 64 -112q26 -13 28 -28q0 -52 -96 -120 q-57 -36 -84 -36h-4q-124 0 -124 162v10z" />
<glyph unicode="Y" horiz-adv-x="1106" d="M64 370q20 69 48 200q112 321 152 468q36 134 36 204q-12 32 -44 32q-53 0 -104 -88q0 -6 -12 -12q-52 29 -52 60q105 205 246 205q11 0 22 -1q52 0 112 -60q40 -51 40 -156q0 -167 -156 -552q-80 -239 -80 -348q0 -184 124 -184q89 0 144 80q94 393 212 584 q133 184 256 184q34 -6 34 -60q0 -12 -2 -28q-12 -76 -48 -168q-43 -93 -176 -308q-52 -133 -128 -456q-60 -203 -88 -328q-16 -8 -44 -8h-124l-24 -4q-16 6 -16 12q68 261 104 424q5 0 8 28l-8 4q-110 -92 -196 -92h-16q-154 0 -208 172q-17 55 -17 120q0 37 5 76z" />
<glyph unicode="Z" horiz-adv-x="1484" d="M40 1125q3 102 42 161q36 71 153 138q56 42 224 60h44q148 0 528 -100q154 -40 276 -40h4q21 0 68 4v-8q-9 -15 -196 -172q-362 -357 -456 -492q-212 -251 -328 -456q8 -4 12 -4q88 0 448 -84q20 0 76 -12h44q108 0 208 56q60 49 60 96v24q-8 46 -52 92q-40 32 -120 32 q-32 0 -72 -16q-8 10 -8 16q38 68 88 68q0 7 28 8h72q102 -12 156 -44q80 -47 112 -152v-56q-12 -86 -84 -164q-114 -80 -296 -80q-106 0 -336 84q-216 60 -328 60h-76q-15 0 -96 -16q-40 0 -52 60q0 65 120 260q116 188 316 416q47 57 124 136l200 212q29 24 36 24 q-7 10 -120 36q-8 0 -196 64q-176 52 -252 52q-137 0 -208 -108q-24 -45 -24 -104q0 -62 108 -108q100 -55 100 -124q-13 -63 -78 -63q-14 0 -30 3q-161 50 -216 152q-18 35 -23 89zM1687 1364v8h12v-8h-12z" />
<glyph unicode="a" horiz-adv-x="666" d="M7 180q0 144 104 284q115 120 212 120q98 0 124 -48l8 -4h4q32 52 40 52q39 0 90.5 2t53.5 2l8 -12v-8q-62 -90 -164 -368q-12 -33 -12 -44v-4q0 -44 40 -44q29 0 104 60h8q10 0 16 -36q0 -61 -168 -128l-36 -4q-77 0 -120 64q-68 -60 -128 -60h-8q-123 0 -164 108z M175 249q3 -93 68 -97h20q62 0 120 244q1 12 1 22q0 65 -37 80q-7 2 -16 2q-70 -26 -120 -124q-32 -63 -36 -127z" />
<glyph unicode="b" horiz-adv-x="602" d="M0 216q-1 13 -1 27q0 177 121 453q55 122 116 224q62 122 188 272q226 248 372 248h36q92 -14 92 -92v-12q0 -200 -256 -432q-187 -171 -360 -240q-12 -12 -60 -144h4q94 68 164 68q134 0 156 -112v-14q0 -112 -104 -278q-86 -121 -168 -156q-57 -28 -130 -28h-10 q-139 5 -160 216zM192 212q12 -92 36 -96h20q80 0 132 196q8 38 8 60v16q-13 80 -76 80q-62 0 -100 -88q-9 -30 -17 -86q-3 -43 -3 -70v-12zM342 761q22 10 102 67q229 218 288 348q44 74 60 160l-16 12q-108 -47 -256 -272q-95 -143 -178 -315z" />
<glyph unicode="c" horiz-adv-x="537" d="M0 172q-1 8 -1 18q0 34 9 82q17 83 94 175q84 102 202 133q47 8 85 8q114 0 135 -76v-40q-29 -148 -92 -148q-45 -3 -75 -3q-61 0 -65 11v8q72 116 72 140v12q-6 16 -28 16h-8q-54 0 -128 -128q-23 -40 -36 -128q0 -125 132 -128q71 0 184 68l8 -36q0 -54 -108 -104 q-58 -36 -176 -52h-36q-59 7 -108 44q-50 48 -60 128z" />
<glyph unicode="d" horiz-adv-x="799" d="M0 160q0 227 236 384q50 25 98 25q29 0 58 -9q44 261 100 396q127 300 244 300q75 0 100 -172q0 -265 -280 -748q31 -172 80 -172h4q4 0 64 28q8 0 8 -12q0 -65 -108 -144q-57 -36 -100 -36h-4q-52 0 -84 112q-10 16 -16 16q-86 -96 -156 -112q-42 -16 -56 -16h-40 q-88 0 -132 92zM184 188q17 -48 60 -48q93 29 140 112v92q0 59 4 160h-4q-92 0 -176 -176q-24 -69 -24 -96v-44zM540 471q148 319 148 525v16l-12 68h-7q-57 -96 -77 -180q-55 -211 -55 -360q0 -36 3 -69z" />
<glyph unicode="e" horiz-adv-x="502" d="M0 212q0 114 96 248q130 132 276 132q85 0 108 -80q4 -35 4 -40q0 -142 -200 -260q-45 -23 -88 -36q0 -33 112 -48q119 19 160 68h12q8 -1 8 -8v-12q0 -83 -192 -156q-30 -12 -96 -20q-92 0 -160 76q-40 45 -40 136zM160 280q3 -44 12 -44q102 53 132 132q16 44 16 68v36 q0 28 -28 28q-43 0 -96 -96q-34 -76 -36 -124z" />
<glyph unicode="f" horiz-adv-x="568" d="M-150 -379q0 14 76 184l220 532q68 146 248 584q124 241 216 348q154 164 276 164h8q92 -21 92 -147v-5q0 -81 -68 -216q-61 -115 -224 -288q-211 -198 -272 -220q-12 -29 -12 -36v-4h104q30 0 32 -12v-8q-47 -92 -52 -92q-18 1 -34 1q-81 0 -106 -17 q-108 -268 -252 -660q-38 -101 -48 -112q-7 0 -30 -5q-17 -4 -92 -4q-31 0 -70 1q-6 0 -12 12zM462 657q7 3 28 20q255 300 300 448q42 87 56 156v24l-4 20h-16q-67 -18 -204 -308q-35 -50 -100 -208l-60 -148v-4z" />
<glyph unicode="g" horiz-adv-x="676" d="M-349 -416q9 64 92 148q146 112 328 112q8 0 84 -12q4 0 92 192q-52 -24 -108 -24q-102 15 -128 94q-9 35 -9 72q0 91 53 198q57 123 188 192q41 24 120 32q59 0 112 -36v4q6 17 24 33q26 0 164 -1q-5 -94 -168 -436q-46 -114 -96 -208l-88 -164q0 -9 112 -76 q45 -35 45 -57q0 -4 -1 -7q-99 -76 -112 -76q-69 66 -120 84h-16q-34 -66 -164 -156q-117 -72 -252 -72q-134 9 -152 120v44zM-217 -444q0 -48 52 -48q138 0 256 212v4q-49 20 -60 20q-171 0 -236 -144q-8 0 -12 -44zM183 176q12 -63 58 -63q10 0 22 3h2q41 0 147 263 q16 37 16 63q0 8 -1 14q0 34 -52 44h-8q-67 0 -152 -160q-32 -57 -32 -164z" />
<glyph unicode="h" horiz-adv-x="710" d="M0 20v4q12 37 240 568l248 576q75 176 88 184q4 8 72 8h16h80q12 0 12 -16q-264 -604 -376 -856v-12h4q116 112 180 112q136 0 136 -76v-36q0 -45 -132 -292q-8 -30 -8 -36q5 -20 12 -20q16 0 84 32h16q8 -1 8 -8v-16q0 -52 -112 -112q-46 -24 -92 -24q-86 0 -112 64 q-4 6 -4 24q0 40 124 296q19 46 24 76q-5 24 -12 24q-69 -17 -188 -172q-102 -225 -128 -300q-20 -12 -40 -12q-4 0 -4 4l-16 -4q-120 0 -120 20z" />
<glyph unicode="i" horiz-adv-x="375" d="M0 76q-1 70 42 145q114 203 114 239q0 15 -16 12q-43 -36 -48 -36q-24 19 -24 40v4q110 104 184 104q86 0 100 -56q0 -58 -80 -228q-60 -119 -84 -184l8 -4q8 0 76 40q13 7 18 -2q5 -12 5 -24q0 -62 -127 -114q-52 -12 -84 -12h-7q-66 0 -77 76zM254 739q13 113 98 113h4 q65 -6 68 -72q0 -63 -76 -104q-15 -8 -32 -8q-62 5 -62 62v9z" />
<glyph unicode="j" horiz-adv-x="375" d="M-478 -324q3 104 176 196q162 72 276 76q33 36 124 252q67 163 69 244q-56 -42 -85 -42h-3q-12 -4 -16 12v9q0 59 87 121q54 45 98 45q5 0 10 -1q84 -7 96 -88v-16q0 -141 -80 -316q-65 -149 -112 -228v-8q116 -39 124 -60v-8l-72 -112q-8 -4 -12 -4q-88 64 -112 64h-8 q-174 -246 -388 -260h-16q-147 0 -156 124zM-338 -344q-1 -18 26 -18q8 0 18 2q109 28 200 204q-102 -13 -160 -52q-70 -56 -84 -136zM250 724q21 108 108 108q60 0 60 -68q-4 -104 -96 -116h-2q-70 0 -70 67v9z" />
<glyph unicode="k" horiz-adv-x="753" d="M0 8l376 860q144 309 308 440q83 68 172 68q112 0 112 -144q0 -158 -260 -440q-141 -121 -279 -188l-27 -60q115 52 174 52q152 -18 152 -116q0 -108 -156 -196q-34 -16 -51 -26q18 -106 71 -106q62 0 116 56h12q12 -4 12 -24q0 -67 -172 -156q-36 -13 -88 -20 q-65 0 -88 72q0 164 -64 164q-25 6 -32 20q-99 -238 -108 -248q0 -16 -12 -16h-160q-8 0 -8 8zM327 355q18 8 41 13q14 2 26 2q36 0 58 -18q58 32 68 60v20q-16 36 -68 36h-28q-61 0 -97 -113zM473 704q72 32 211 204q149 242 160 356q0 17 -17 17q-3 0 -7 -1 q-104 -88 -144 -180q-76 -129 -203 -396z" />
<glyph unicode="l" horiz-adv-x="405" d="M0 204q19 175 52 228q65 190 320 536q240 306 468 356q9 1 17 1q74 0 91 -73q2 -11 2 -23q0 -125 -194 -369q-54 -66 -156 -156q-98 -91 -160 -120q-152 -76 -152 -80q-104 -229 -104 -308q0 -36 24 -56q6 -1 12 -1q38 0 100 53h16q6 0 12 -12v-24q-3 -33 -116 -128 q-49 -28 -84 -28h-24q-83 0 -116 96q-4 28 -8 108zM332 596q72 31 264 216q182 245 204 379q-1 18 -14 18q-3 0 -6 -1q-131 -101 -220 -228q-95 -127 -228 -384z" />
<glyph unicode="m" horiz-adv-x="1031" d="M0 16q145 275 204 444l-12 8q-82 -64 -112 -64q-8 13 -8 20q0 84 160 156q37 9 66 9q88 0 94 -85q1 -29 -12 -60q150 144 224 144h5q95 0 95 -74v-6q0 -31 -12 -84l72 76q99 93 159 93q5 0 9 -1q85 -20 85 -99q0 -10 -1 -21q0 -43 -124 -276q-33 -58 -33 -71q0 -3 2 -3h1 l12 6q44 38 66 38q5 0 8 -2q11 -2 12 -24q0 -49 -108 -124q-33 -16 -91 -16h-13q-84 11 -84 76q0 42 88 224q60 104 60 140l-4 8q-172 -115 -260 -348q-45 -99 -60 -100h-156q-6 0 -12 16q184 382 184 420v8l-8 4h-16q-133 -88 -188 -200q-99 -218 -116 -244q-22 -4 -36 -4 h-116q-24 0 -24 16z" />
<glyph unicode="n" horiz-adv-x="722" d="M0 12v16q127 230 192 400v12q0 8 -8 8q-23 0 -64 -36q-43 -11 -36 32q7 49 88 116q39 28 81 28h3q88 0 112 -68q4 -22 4 -36q-4 -50 -4 -56q147 161 215 161h11q99 0 102 -69q0 -59 -76 -208q-92 -190 -92 -200q4 -28 16 -28q30 0 84 68q32 2 40 -28q-84 -130 -196 -136 q-132 0 -132 108q0 36 100 224q28 64 28 80q0 8 -8 8h-12q-77 -21 -176 -204q-35 -66 -96 -196l-28 -4h-140q-8 0 -8 8z" />
<glyph unicode="o" horiz-adv-x="649" d="M0 188q10 120 64 200q140 208 296 208q38 -3 32 -40q-51 -26 -76 -40q-111 -82 -140 -236q0 -100 88 -100q92 0 192 177q-56 36 -56 123q15 108 88 108q67 0 80 -108q1 -25 -4 -32l12 -8q31 38 46 38q14 0 14 -35v-7q-17 -40 -68 -84q-10 -8 -27 -12q-39 -134 -169 -248 q-116 -92 -236 -92q-136 0 -136 188z" />
<glyph unicode="p" horiz-adv-x="815" d="M-278 -511q8 110 192 392q52 84 276 364q65 114 65 200q0 12 -1 24l-14 8q-15 -30 -70 -36q-13 -2 -12 12q46 128 148 140q62 0 88 -48q19 -44 18 -72q107 114 208 114q13 0 26 -2q98 -26 100 -132q-4 -62 -16 -116q58 -3 56 -32q-1 -31 -88 -63q-23 -64 -108 -149 q-118 -100 -176 -100q-38 -15 -44 20q-1 10 -1 20q0 90 73 164l112 88q4 40 4 60q0 72 -52 80q-7 1 -14 1q-45 0 -76 -54q-16 -28 -26 -79q-63 -189 -156 -360q-110 -190 -284 -372q-139 -120 -212 -120q-18 7 -18 28q0 7 2 16v4zM-126 -335v-8q38 29 136 192q48 92 48 100 v4h-4q-26 -25 -92 -136q-60 -85 -84 -152h-4z" />
<glyph unicode="q" horiz-adv-x="710" d="M0 157q3 94 52 208q35 80 140 170q73 59 171 59q10 0 21 -1q44 0 108 -64q11 19 28 56q-1 9 90 9q35 0 83 -1l3 -4q0 -12 -172 -416l-104 -240l-222 -526l-7 -6q-12 -4 -125 -4h-50q-8 0 -8 8l172 392l116 268q-52 -63 -137 -63q-19 0 -39 3q-120 44 -120 152zM180 229 q2 -69 72 -72q95 0 148 180q12 44 12 72q-9 92 -92 92q-132 -53 -140 -272z" />
<glyph unicode="r" horiz-adv-x="490" d="M0 140q0 121 144 264q61 52 72 52v4q-32 20 -72 20q-34 -28 -64 -28h-20q-6 0 -12 12v8q0 19 44 68v8q0 27 -4 48q0 112 104 172l36 4q60 -7 60 -60v-28q0 -24 -32 -72q7 -31 104 -36q20 0 64 12h8q15 0 24 -60v-16q-5 -7 -104 -56q-121 -78 -168 -232q0 -76 104 -76 q26 0 96 28q7 4 16 4l12 -16v-20q0 -66 -156 -120q-46 -20 -96 -24q-131 0 -152 96q-6 0 -8 44z" />
<glyph unicode="s" horiz-adv-x="598" d="M0 128q0 39 100 104q148 169 204 280q-4 4 -8 52l220 192h12l28 -84q-68 -51 -68 -132q16 -142 16 -232q0 -75 -32 -132q32 -45 66 -76l-1 -9q-73 -67 -109 -75h-4l-28 48q-97 -64 -168 -64q-109 0 -152 88q-4 16 -5 23l-11 -3l-12 -8h-12q-29 0 -36 28zM200 148 q11 -40 40 -40h16q19 0 48 32v8q-29 28 -76 28q-28 -10 -28 -28zM216 264l14 -2l18 -2l80 -20h3q5 0 5 5q4 22 4 48v11q-7 94 -20 100q-4 0 -80 -108q-16 -21 -24 -32z" />
<glyph unicode="t" horiz-adv-x="440" d="M0 632v4q34 29 260 68q0 8 89 213q9 16 25 24q51 4 106 4q27 0 56 -1l4 -8q0 -15 -88 -204h52q85 12 212 12q99 0 180 -28v-16q-28 -28 -72 -64h-16q-161 29 -326 29q-25 0 -50 -1q-18 0 -116 -244q-80 -177 -128 -284v-12q4 -12 24 -12q18 0 88 20l4 -8q0 -50 -40 -72 q-88 -52 -140 -52q-120 0 -120 80v4q0 48 40 140q39 86 180 396v8q0 8 -8 8q-146 -32 -188 -56q-19 0 -28 52z" />
<glyph unicode="u" horiz-adv-x="749" d="M0 80q0 69 104 312l92 176q0 13 20 24h164q8 -1 8 -8q-198 -411 -204 -432q-7 -26 16 -24q66 7 244 252q52 80 84 160q23 46 36 52h156q8 -1 8 -8q-39 -69 -224 -462l3 -3q7 -1 14 -1q36 0 79 34q8 5 16 4q20 0 20 -44q0 -40 -124 -96q-48 -17 -97 -17q-12 0 -23 1 q-64 32 -64 84q0 9 20 80h-8q-135 -138 -171 -143q-21 -15 -73 -17q-96 12 -96 76z" />
<glyph unicode="v" horiz-adv-x="699" d="M0 152q0 53 100 248v8q0 8 -8 8q-23 -32 -52 -32h-4q-6 0 -12 12v4q6 59 76 132q71 60 104 60q22 4 44 4q69 0 69 -82q0 -9 -1 -18q0 -51 -104 -228q-37 -65 -48 -108q0 -36 52 -56h24q77 14 168 140l40 80v8q-36 38 -36 106v14q8 55 60 108q36 30 74 30q11 0 22 -2 q52 -27 52 -92q-2 -65 -19 -101q3 -7 7 -7q38 24 60 24q9 -3 9 -15q0 -4 -1 -9q-33 -76 -132 -91q-50 -99 -192 -209q-123 -80 -200 -88q-98 0 -140 56q-13 14 -13 67q0 13 1 29z" />
<glyph unicode="w" horiz-adv-x="977" d="M0 136q0 44 116 280l-8 4l-36 -24q-16 -1 -20 24q0 63 59 114q59 45 129 54h4q82 0 84 -76q0 -53 -160 -360q-5 -13 -4 -23q0 -24 28 -25q87 0 132 100q23 91 64 168q95 212 116 212q11 4 123 4h49q4 -8 4 -12q-116 -197 -176 -348q-12 -31 -12 -57q0 -12 3 -22 q11 -49 51 -49h2q57 4 104 40q80 70 120 200q-82 39 -80 120q22 128 92 128q54 0 76 -23q47 -43 48 -137q21 12 40 12q10 -1 12 -12q0 -41 -88 -100q-40 -109 -135 -209q-98 -107 -233 -119q-119 0 -172 96q-118 -93 -219 -93q-11 0 -21 1q-92 24 -92 120v12z" />
<glyph unicode="x" horiz-adv-x="618" d="M0 104q14 64 72 112q53 50 160 100v4q-8 67 -36 144h-32q-18 -2 -16 24q6 92 156 116q55 0 72 -144q5 -39 17 -67q58 42 79 103q3 12 3 24q0 30 -17 56l2 8q0 10 108 44h16q12 0 20 -56q0 -107 -144 -224q-43 -27 -56 -39q30 -185 52 -185h8q18 0 72 56q23 6 32 -16 q0 -59 -112 -132q-34 -24 -72 -24q-99 0 -128 208l-8 4q-89 -42 -88 -92q9 -44 24 -44l28 4q4 -8 4 -12q-50 -76 -144 -76q-73 5 -73 85q0 9 1 19z" />
<glyph unicode="y" horiz-adv-x="699" d="M-339 -529q-1 8 -1 16q0 111 129 220q156 106 268 106h5q113 -2 115 -2q71 122 160 318q-87 -56 -153 -98q-48 -32 -123 -32q-40 0 -56 68q-1 6 -1 11q0 44 33 101q31 63 110 211l-8 2q-6 -23 -50 -45q-43 -20 -52 12q169 240 252 240q67 0 92 -40q4 -7 4 -19 q0 -83 -180 -377v-8l4 -8q103 22 232 184q24 28 76 132h156q11 -1 11 -9q0 -5 -3 -11q-79 -154 -200 -424q-54 -80 -140 -260q76 -54 76 -64q-60 -80 -64 -80q-5 0 -68 56q-62 -92 -168 -192q-144 -124 -260 -124h-6q-163 0 -190 116zM-183 -489q13 -64 60 -64q60 0 164 140 q88 126 88 148q-6 5 -40 8q-137 0 -232 -108q-41 -64 -41 -112q0 -6 1 -12z" />
<glyph unicode="z" horiz-adv-x="769" d="M-270 -435q69 123 260 248q192 105 192 108q-43 76 -84 76q-92 0 -92 68q4 43 60 60q79 0 176 108q32 35 32 125v11q-19 94 -94 94h-6l-12 -2q-57 -52 -83 -52q-16 0 -21 20q12 65 72 108q76 52 147 52h5q137 0 188 -144q2 -21 2 -40q0 -133 -106 -220q-80 -76 -122 -90 q50 -19 126 -94q245 100 378 100h10q18 -8 20 -16q-30 -76 -48 -88l-72 -6q-135 -10 -264 -61v-12q0 -131 -128 -249q-189 -181 -412 -216q-128 3 -128 82q0 14 4 30zM-102 -431q13 -14 38 -14q10 0 22 2q67 0 148 80q82 94 92 200q-70 -8 -240 -164q-61 -68 -61 -97 q0 -4 1 -7z" />
<glyph unicode="&#xa0;" />
<glyph unicode="&#x2000;" horiz-adv-x="781" />
<glyph unicode="&#x2001;" horiz-adv-x="1562" />
<glyph unicode="&#x2002;" horiz-adv-x="781" />
<glyph unicode="&#x2003;" horiz-adv-x="1562" />
<glyph unicode="&#x2004;" horiz-adv-x="520" />
<glyph unicode="&#x2005;" horiz-adv-x="390" />
<glyph unicode="&#x2006;" horiz-adv-x="260" />
<glyph unicode="&#x2007;" horiz-adv-x="260" />
<glyph unicode="&#x2008;" horiz-adv-x="195" />
<glyph unicode="&#x2009;" horiz-adv-x="312" />
<glyph unicode="&#x200a;" horiz-adv-x="86" />
<glyph unicode="&#x202f;" horiz-adv-x="312" />
<glyph unicode="&#x205f;" horiz-adv-x="390" />
<glyph unicode="&#xe000;" horiz-adv-x="630" d="M0 0v630h630v-630h-630z" />
</font>
</defs>
</svg>
